<svg xmlns="http://www.w3.org/2000/svg" xmlns:xlink="http://www.w3.org/1999/xlink" viewBox="0 0 58.83 51.82"><defs><style>.cls-1{fill:none;}.cls-2,.cls-5{fill:#0062ac;}.cls-2,.cls-3,.cls-4{fill-rule:evenodd;}.cls-3{fill:#e31e24;}.cls-4{fill:#2b2a29;}.cls-6{clip-path:url(#clip-path);}</style><clipPath id="clip-path"><path class="cls-1" d="M38.88,49.19h1.77l-.42,2.47h.66l.41-2.47h1.77l.1-.57H39Zm10.33.13c0-.09.07-.13.18-.13h3l.1-.57h-3a1.08,1.08,0,0,0-.61.19.78.78,0,0,0-.32.51L48.28,51a.51.51,0,0,0,.15.5.73.73,0,0,0,.54.19h3l.1-.56h-3c-.11,0-.15-.05-.14-.13l.28-1.65Zm4.53-.7h-.66l-.51,3h.65l.21-1.24h2.88l-.21,1.24h.66l.51-3h-.66l-.21,1.24H53.53Z"/></clipPath></defs><g id="Layer_2" data-name="Layer 2"><g id="Layer_1-2" data-name="Layer 1"><g id="_2585667980400" data-name=" 2585667980400"><polygon class="cls-2" points="36.8 13.21 43.12 22.84 29.75 33.36 4.36 33.36 36.8 13.21"/><polygon class="cls-3" points="22.03 20.15 15.71 10.52 29.08 0 54.47 0 22.03 20.15"/><path class="cls-4" d="M34.68,44.44h0a.15.15,0,0,1-.13-.16l.14-.94H44.75l.33-2.16H35l.14-1a.2.2,0,0,1,.18-.15h9.9l.34-2.23H36.06a3.46,3.46,0,0,0-3.38,2.76l-.51,3.29a2.4,2.4,0,0,0,2.53,2.77h9.53l.34-2.23ZM19.35,37.85h9.52a2.4,2.4,0,0,1,2.54,2.76L30.9,43.9a3.47,3.47,0,0,1-3.39,2.77H18q.68-4.41,1.36-8.82Zm8.87,6.59h0a.19.19,0,0,0,.18-.16L29,40.23a.16.16,0,0,0-.13-.15H21.51l-.67,4.36ZM15.4,37.85h2.5l-1.36,8.82H14l1.37-8.82ZM3,40.08H3a.19.19,0,0,0-.18.15L2.74,41a.13.13,0,0,0,.13.16h8.07a2.39,2.39,0,0,1,2.54,2.75,3.48,3.48,0,0,1-3.39,2.77H0l.34-2.23H10.8a.18.18,0,0,0,.18-.16l.12-.76a.12.12,0,0,0-.13-.14H2.89A2.4,2.4,0,0,1,.36,40.61a3.46,3.46,0,0,1,3.38-2.76H13.83l-.34,2.23Zm43.25,1.07h9.84A.19.19,0,0,0,56.3,41l.12-.76a.13.13,0,0,0-.13-.15H46.45l.34-2.23h9.47a2.4,2.4,0,0,1,2.54,2.76A3.17,3.17,0,0,1,58,42.18a2.77,2.77,0,0,1,.25,1.72l-.43,2.77H55.63l.49-3.15a.12.12,0,0,0-.13-.14H48.45l-.51,3.29H45.43l.85-5.52Z"/><path class="cls-2" d="M44.18,51h0a.06.06,0,0,1,0-.06l.06-.35H48l.12-.81H44.31l.06-.35a.06.06,0,0,1,.06-.06h3.7l.13-.83H44.7a1.3,1.3,0,0,0-1.27,1l-.19,1.23a.91.91,0,0,0,.95,1h3.56l.13-.84Z"/><path class="cls-5" d="M38.88,49.19h1.77l-.42,2.47h.66l.41-2.47h1.77l.1-.57H39Zm10.33.13c0-.09.07-.13.18-.13h3l.1-.57h-3a1.08,1.08,0,0,0-.61.19.78.78,0,0,0-.32.51L48.28,51a.51.51,0,0,0,.15.5.73.73,0,0,0,.54.19h3l.1-.56h-3c-.11,0-.15-.05-.14-.13l.28-1.65Zm4.53-.7h-.66l-.51,3h.65l.21-1.24h2.88l-.21,1.24h.66l.51-3h-.66l-.21,1.24H53.53Z"/><g id="_1" data-name="1"><path class="cls-5" d="M52.13,51.82H49a.88.88,0,0,1-.65-.24.69.69,0,0,1-.2-.64l.28-1.65a.89.89,0,0,1,.38-.6,1.15,1.15,0,0,1,.7-.23h3.23l-.16.88H49.36l-.26,1.6h3.19Zm-2.65-3a.85.85,0,0,0-.52.16.64.64,0,0,0-.25.4L48.43,51a.42.42,0,0,0,.1.37.61.61,0,0,0,.44.14h2.89l0-.26H49.07a.3.3,0,0,1-.24-.09.27.27,0,0,1,0-.22l.28-1.65a.3.3,0,0,1,.33-.26h2.9l0-.25Zm7.41,3h-1l.21-1.24H53.57l-.21,1.24h-1L53,48.46h1l-.21,1.24h2.56l.21-1.24h1Zm-.6-.32h.33l.46-2.72h-.34L56.54,50h-3.2l.21-1.24h-.34l-.46,2.72h.34l.21-1.23h3.19ZM41,51.82h-1l.41-2.48H38.69l.15-.88h4.51l-.15.88H41.44Zm-.6-.32h.33L41.17,49h1.77l0-.25H39.1l0,.25h1.77Z"/></g><g class="cls-6"><g id="_2" data-name="2"><polygon class="cls-5" points="57.27 51.67 48.07 50.15 38.88 51.67 38.87 51.66 48.03 50.14 38.87 48.63 38.88 48.62 48.07 50.14 57.27 48.62 57.27 48.63 48.11 50.14 57.27 51.66 57.27 51.67"/></g></g></g></g></g></svg>